<svg xmlns="http://www.w3.org/2000/svg" xmlns:xlink="http://www.w3.org/1999/xlink" viewBox="0 0 700.63 440.49"><defs><style>.cls-1{fill:none;}.cls-2{isolation:isolate;}.cls-3{clip-path:url(#clip-path);}.cls-4{fill:#2980b9;}.cls-5{clip-path:url(#clip-path-2);}.cls-6{fill:#e67e22;}.cls-7{clip-path:url(#clip-path-3);}.cls-8{fill:#ff931e;}.cls-9{fill:#f5fafd;stroke:#b3b3b3;}.cls-12,.cls-13,.cls-14,.cls-15,.cls-23,.cls-9{stroke-miterlimit:10;}.cls-10{fill:#ccc;}.cls-11{fill:#999;}.cls-12,.cls-13,.cls-14{fill:#fff;}.cls-12{stroke:#999;}.cls-13,.cls-14,.cls-23{stroke:#ccc;}.cls-14{stroke-width:2px;}.cls-15{fill:#f0f1f2;stroke:#e6e6e6;}.cls-16{fill:gray;}.cls-17{fill:#333;}.cls-18{fill:#1a1a1a;}.cls-19{fill:#c0392b;}.cls-20{fill:#0071bc;}.cls-21{fill:#b3b3b3;}.cls-22{fill:#bdccd4;}.cls-23{fill:#e6e6e6;}.cls-24,.cls-27{fill:#3c1721;}.cls-24{opacity:0.28;mix-blend-mode:multiply;}.cls-25{fill:#e74c3c;}.cls-26{fill:#fff488;}.cls-28{fill:#9b59b6;}.cls-29{fill:#4d4d4d;}.cls-30{fill:#f1c40f;}</style><clipPath id="clip-path"><path class="cls-1" d="M210.31,42.74a62.41,62.41,0,1,1-87.93,7.51A62.43,62.43,0,0,1,210.31,42.74Z"/></clipPath><clipPath id="clip-path-2"><path class="cls-1" d="M173,196.3c15,11.81,16.89,32.75,4.27,46.77s-35,15.8-50,4-16.89-32.75-4.26-46.77S158,184.49,173,196.3Z"/></clipPath><clipPath id="clip-path-3"><path class="cls-1" d="M666.2,277.48a36.39,36.39,0,0,1,4.21,50.44,34.43,34.43,0,0,1-49.28,4.31,36.38,36.38,0,0,1-4.21-50.44A34.43,34.43,0,0,1,666.2,277.48Z"/></clipPath></defs><title>Asset 19</title><g class="cls-2"><g id="Layer_2" data-name="Layer 2"><g id="Layer_1-2" data-name="Layer 1"><g class="cls-3"><rect class="cls-4" x="63.56" y="43.21" width="124.82" height="6.24" transform="translate(4.13 102.64) rotate(-45)"/><rect class="cls-4" x="73.36" y="53.02" width="124.82" height="6.24" transform="translate(0.07 112.45) rotate(-45)"/><rect class="cls-4" x="83.17" y="62.83" width="124.82" height="6.24" transform="translate(-3.99 122.26) rotate(-45)"/><rect class="cls-4" x="92.98" y="72.63" width="124.82" height="6.24" transform="translate(-8.06 132.06) rotate(-45)"/><rect class="cls-4" x="102.78" y="82.44" width="124.82" height="6.24" transform="translate(-12.12 141.87) rotate(-45)"/><rect class="cls-4" x="112.59" y="92.25" width="124.82" height="6.24" transform="translate(-16.18 151.68) rotate(-45)"/><rect class="cls-4" x="122.39" y="102.05" width="124.82" height="6.24" transform="translate(-20.24 161.48) rotate(-45)"/><rect class="cls-4" x="132.2" y="111.86" width="124.82" height="6.24" transform="translate(-24.3 171.29) rotate(-45)"/><rect class="cls-4" x="142.01" y="121.67" width="124.82" height="6.24" transform="translate(-28.37 181.09) rotate(-45)"/><rect class="cls-4" x="151.81" y="131.47" width="124.82" height="6.24" transform="translate(-32.43 190.91) rotate(-45)"/></g><g class="cls-5"><polygon class="cls-6" points="151.42 175.91 101.25 222.85 98.74 220.51 148.91 173.57 151.42 175.91"/><polygon class="cls-6" points="156.99 181.13 106.82 228.07 104.31 225.72 154.48 178.78 156.99 181.13"/><polygon class="cls-6" points="162.57 186.34 112.4 233.29 109.89 230.94 160.06 184 162.57 186.34"/><polygon class="cls-6" points="168.14 191.56 117.97 238.5 115.46 236.15 165.63 189.21 168.14 191.56"/><polygon class="cls-6" points="173.71 196.78 123.55 243.72 121.04 241.37 171.21 194.43 173.71 196.78"/><polygon class="cls-6" points="179.29 201.99 129.12 248.93 126.61 246.59 176.78 199.64 179.29 201.99"/><polygon class="cls-6" points="184.86 207.21 134.69 254.15 132.19 251.8 182.35 204.86 184.86 207.21"/><polygon class="cls-6" points="190.44 212.42 140.27 259.37 137.76 257.02 187.93 210.08 190.44 212.42"/><polygon class="cls-6" points="196.01 217.64 145.84 264.58 143.33 262.23 193.5 215.29 196.01 217.64"/><polygon class="cls-6" points="201.58 222.85 151.42 269.8 148.91 267.45 199.08 220.51 201.58 222.85"/></g><g class="cls-7"><polygon class="cls-8" points="644.9 255.5 595.44 306.12 592.97 303.59 642.43 252.97 644.9 255.5"/><polygon class="cls-8" points="650.39 261.12 600.93 311.74 598.46 309.21 647.92 258.59 650.39 261.12"/><polygon class="cls-8" points="655.89 266.75 606.43 317.37 603.96 314.84 653.42 264.21 655.89 266.75"/><polygon class="cls-8" points="661.39 272.37 611.92 323 609.45 320.46 658.91 269.84 661.39 272.37"/><polygon class="cls-8" points="666.88 278 617.42 328.62 614.95 326.09 664.41 275.46 666.88 278"/><polygon class="cls-8" points="672.38 283.62 622.92 334.25 620.44 331.71 669.9 281.09 672.38 283.62"/><polygon class="cls-8" points="677.87 289.25 628.41 339.87 625.94 337.34 675.4 286.71 677.87 289.25"/><polygon class="cls-8" points="683.37 294.87 633.91 345.49 631.43 342.96 680.9 292.34 683.37 294.87"/><polygon class="cls-8" points="688.87 300.5 639.4 351.12 636.93 348.59 686.39 297.96 688.87 300.5"/><polygon class="cls-8" points="694.36 306.12 644.9 356.74 642.42 354.21 691.89 303.59 694.36 306.12"/></g><rect class="cls-9" x="669.13" y="397.99" width="24" height="42" rx="4.83" ry="4.83"/><rect class="cls-9" x="25.13" y="397.99" width="24" height="42" rx="4.83" ry="4.83"/><polygon class="cls-10" points="320.13 351.49 303.56 376.99 430.06 376.99 407.38 348.49 320.13 348.49 320.13 351.49"/><polygon class="cls-11" points="223.13 393 241.13 375.49 489.13 375.99 501.63 393 223.13 393"/><rect class="cls-12" x="17.63" y="384.49" width="682.5" height="41.5"/><rect class="cls-9" x="25.63" y="391.49" width="429" height="28"/><rect class="cls-9" x="460.63" y="391.49" width="233" height="28"/><circle class="cls-13" cx="226.13" cy="406.99" r="6"/><circle class="cls-13" cx="576.13" cy="406.99" r="6"/><rect class="cls-14" x="156.13" y="76.99" width="421" height="277.5" rx="16.67" ry="16.67"/><rect class="cls-15" x="170.13" y="90.99" width="393" height="228"/><rect class="cls-16" x="222.63" y="189.49" width="41" height="6" rx="3" ry="3"/><rect class="cls-17" x="179.13" y="105.5" width="152.5" height="19.12"/><rect class="cls-18" x="179.13" y="123.75" width="152.5" height="180.74"/><rect class="cls-19" x="184.78" y="135.91" width="39.1" height="5.21" rx="2.61" ry="2.61"/><rect class="cls-19" x="299.48" y="148.95" width="23.46" height="5.21" rx="2.61" ry="2.61"/><rect class="cls-16" x="253.43" y="135.91" width="60.83" height="5.21" rx="2.61" ry="2.61"/><rect class="cls-16" x="221.28" y="148.95" width="35.63" height="5.21" rx="2.61" ry="2.61"/><rect class="cls-16" x="206.51" y="160.24" width="35.63" height="5.21" rx="2.61" ry="2.61"/><rect class="cls-16" x="244.74" y="160.24" width="35.63" height="5.21" rx="2.61" ry="2.61"/><rect class="cls-16" x="283.84" y="160.24" width="20.85" height="5.21" rx="2.61" ry="2.61"/><rect class="cls-16" x="259.51" y="148.95" width="35.63" height="5.21" rx="2.61" ry="2.61"/><rect class="cls-20" x="226.49" y="135.91" width="23.46" height="5.21" rx="2.61" ry="2.61"/><rect class="cls-20" x="194.34" y="148.95" width="23.46" height="5.21" rx="2.61" ry="2.61"/><rect class="cls-19" x="188.26" y="179.36" width="39.1" height="5.21" rx="2.61" ry="2.61"/><rect class="cls-19" x="302.96" y="192.4" width="23.46" height="5.21" rx="2.61" ry="2.61"/><rect class="cls-16" x="256.91" y="179.36" width="60.83" height="5.21" rx="2.61" ry="2.61"/><rect class="cls-16" x="262.99" y="192.4" width="35.63" height="5.21" rx="2.61" ry="2.61"/><rect class="cls-20" x="229.97" y="179.36" width="23.46" height="5.21" rx="2.61" ry="2.61"/><rect class="cls-20" x="197.82" y="192.4" width="23.46" height="5.21" rx="2.61" ry="2.61"/><rect class="cls-19" x="185.65" y="214.12" width="39.1" height="5.21" rx="2.61" ry="2.61"/><rect class="cls-19" x="300.35" y="227.15" width="23.46" height="5.21" rx="2.61" ry="2.61"/><rect class="cls-16" x="228.23" y="214.12" width="86.89" height="5.21" rx="2.61" ry="2.61"/><rect class="cls-16" x="191.73" y="262.78" width="131.21" height="5.21" rx="2.61" ry="2.61"/><rect class="cls-16" x="212.59" y="272.34" width="58.22" height="5.21" rx="2.61" ry="2.61"/><rect class="cls-16" x="193.47" y="281.9" width="58.22" height="5.21" rx="2.61" ry="2.61"/><rect class="cls-20" x="222.15" y="227.15" width="35.63" height="5.21" rx="2.61" ry="2.61"/><rect class="cls-16" x="207.38" y="238.45" width="35.63" height="5.21" rx="2.61" ry="2.61"/><rect class="cls-19" x="245.61" y="238.45" width="35.63" height="5.21" rx="2.61" ry="2.61"/><rect class="cls-19" x="257.77" y="281.9" width="35.63" height="5.21" rx="2.61" ry="2.61"/><rect class="cls-16" x="282.97" y="238.45" width="20.85" height="5.21" rx="2.61" ry="2.61"/><rect class="cls-16" x="260.38" y="227.15" width="35.63" height="5.21" rx="2.61" ry="2.61"/><rect class="cls-20" x="195.21" y="227.15" width="23.46" height="5.21" rx="2.61" ry="2.61"/><rect class="cls-20" x="276.02" y="272.34" width="23.46" height="5.21" rx="2.61" ry="2.61"/><rect class="cls-16" x="360.13" y="105.99" width="182" height="16"/><rect class="cls-10" x="360.13" y="128.99" width="182" height="16"/><rect class="cls-21" x="360.13" y="151.99" width="182" height="41"/><rect class="cls-22" x="360.63" y="198.49" width="38" height="35" rx="6.25" ry="6.25"/><rect class="cls-22" x="408.63" y="198.49" width="38" height="35" rx="6.25" ry="6.25"/><rect class="cls-22" x="456.63" y="198.49" width="38" height="35" rx="6.25" ry="6.25"/><rect class="cls-22" x="502.63" y="198.49" width="38" height="35" rx="6.25" ry="6.25"/><rect class="cls-23" x="361.13" y="240.99" width="41" height="65" rx="5.17" ry="5.17"/><rect class="cls-13" x="365.13" y="244.99" width="33" height="47" rx="1.33" ry="1.33"/><circle class="cls-13" cx="382.13" cy="297.99" r="3"/><rect class="cls-10" x="410.63" y="245.49" width="130" height="7" rx="2" ry="2"/><rect class="cls-10" x="410.63" y="260.49" width="130" height="7" rx="2" ry="2"/><rect class="cls-10" x="410.63" y="278.49" width="130" height="7" rx="2" ry="2"/><rect class="cls-10" x="410.63" y="294.49" width="130" height="7" rx="2" ry="2"/><path class="cls-10" d="M506,383.25s22.33-23.25,46,0Z"/><polygon class="cls-24" points="33.9 399.17 17.18 383.8 6.5 397.76 0.28 392.05 16.09 371.38 32.81 386.74 45.84 372.55 49.29 379.04 33.9 399.17"/><polygon class="cls-25" points="33.63 396.03 16.9 380.66 6.22 394.62 0 388.91 15.81 368.24 32.54 383.6 43.55 369.2 49.77 374.92 33.63 396.03"/><polygon class="cls-24" points="577.72 124.51 570.02 103.15 554.09 110.57 551.22 102.62 574.81 91.63 582.51 112.99 600.63 106.45 600.68 113.81 577.72 124.51"/><polygon class="cls-26" points="578.93 121.6 571.23 100.24 555.3 107.66 552.43 99.71 576.02 88.72 583.72 110.08 600.15 102.43 603.01 110.37 578.93 121.6"/><polygon class="cls-24" points="156.72 330.51 149.02 309.15 133.09 316.57 130.22 308.62 153.81 297.63 161.51 318.99 179.63 312.45 179.68 319.81 156.72 330.51"/><polygon class="cls-22" points="157.93 327.6 150.23 306.24 134.3 313.66 131.43 305.71 155.02 294.72 162.72 316.08 179.15 308.43 182.01 316.37 157.93 327.6"/><path class="cls-6" d="M179,186.85a24,24,0,1,1-24.63-23.38A24,24,0,0,1,179,186.85Z"/><path class="cls-22" d="M519,69.85a24,24,0,1,1-24.63-23.38A24,24,0,0,1,519,69.85Z"/><circle class="cls-27" cx="558.45" cy="168.18" r="1.98"/><path class="cls-27" d="M570.45,170.16a2,2,0,1,1,2-2A2,2,0,0,1,570.45,170.16Z"/><path class="cls-27" d="M582.44,170.16a2,2,0,1,1,2-2A2,2,0,0,1,582.44,170.16Z"/><path class="cls-27" d="M594.44,170.16a2,2,0,1,1,2-2A2,2,0,0,1,594.44,170.16Z"/><circle class="cls-27" cx="606.43" cy="168.18" r="1.98"/><path class="cls-27" d="M558.45,180.88a2,2,0,1,1,2-2A2,2,0,0,1,558.45,180.88Z"/><path class="cls-27" d="M570.45,180.88a2,2,0,1,1,2-2A2,2,0,0,1,570.45,180.88Z"/><path class="cls-27" d="M582.44,180.88a2,2,0,1,1,2-2A2,2,0,0,1,582.44,180.88Z"/><path class="cls-27" d="M594.44,180.88a2,2,0,1,1,2-2A2,2,0,0,1,594.44,180.88Z"/><path class="cls-27" d="M606.43,180.88a2,2,0,1,1,2-2A2,2,0,0,1,606.43,180.88Z"/><path class="cls-27" d="M558.45,191.59a2,2,0,1,1,2-2A2,2,0,0,1,558.45,191.59Z"/><path class="cls-27" d="M570.45,191.59a2,2,0,1,1,2-2A2,2,0,0,1,570.45,191.59Z"/><path class="cls-27" d="M582.44,191.59a2,2,0,1,1,2-2A2,2,0,0,1,582.44,191.59Z"/><path class="cls-27" d="M594.44,191.59a2,2,0,1,1,2-2A2,2,0,0,1,594.44,191.59Z"/><path class="cls-27" d="M606.43,191.59a2,2,0,1,1,2-2A2,2,0,0,1,606.43,191.59Z"/><path class="cls-27" d="M558.45,202.3a2,2,0,1,1,2-2A2,2,0,0,1,558.45,202.3Z"/><path class="cls-27" d="M570.45,202.3a2,2,0,1,1,2-2A2,2,0,0,1,570.45,202.3Z"/><path class="cls-27" d="M582.44,202.3a2,2,0,1,1,2-2A2,2,0,0,1,582.44,202.3Z"/><path class="cls-27" d="M594.44,202.3a2,2,0,1,1,2-2A2,2,0,0,1,594.44,202.3Z"/><path class="cls-27" d="M606.43,202.3a2,2,0,1,1,2-2A2,2,0,0,1,606.43,202.3Z"/><path class="cls-27" d="M558.45,213a2,2,0,1,1,2-2A2,2,0,0,1,558.45,213Z"/><path class="cls-27" d="M570.45,213a2,2,0,1,1,2-2A2,2,0,0,1,570.45,213Z"/><path class="cls-27" d="M582.44,213a2,2,0,1,1,2-2A2,2,0,0,1,582.44,213Z"/><path class="cls-27" d="M594.44,213a2,2,0,1,1,2-2A2,2,0,0,1,594.44,213Z"/><path class="cls-27" d="M606.43,213a2,2,0,1,1,2-2A2,2,0,0,1,606.43,213Z"/><path class="cls-27" d="M558.45,223.73a2,2,0,1,1,2-2A2,2,0,0,1,558.45,223.73Z"/><path class="cls-27" d="M570.45,223.73a2,2,0,1,1,2-2A2,2,0,0,1,570.45,223.73Z"/><path class="cls-27" d="M582.44,223.73a2,2,0,1,1,2-2A2,2,0,0,1,582.44,223.73Z"/><path class="cls-27" d="M594.44,223.73a2,2,0,1,1,2-2A2,2,0,0,1,594.44,223.73Z"/><path class="cls-27" d="M606.43,223.73a2,2,0,1,1,2-2A2,2,0,0,1,606.43,223.73Z"/><polygon class="cls-25" points="616.41 34.19 622.55 46.61 628.69 59.03 614.86 58.14 601.04 57.25 608.72 45.72 616.41 34.19"/><polygon class="cls-28" points="618.63 272.75 635.13 263.12 651.63 253.49 651.63 272.75 651.63 292.02 635.13 282.39 618.63 272.75"/><polygon class="cls-29" points="26.64 287.49 37.13 280.99 47.63 274.49 47.63 287.49 47.63 300.49 37.13 293.99 26.64 287.49"/><polygon class="cls-30" points="388.9 46.42 405.02 55.73 405.02 37.12 388.9 46.42"/><polygon class="cls-30" points="363.32 46.42 379.44 55.73 379.44 37.12 363.32 46.42"/><polygon class="cls-30" points="337.73 46.42 353.85 55.73 353.85 37.12 337.73 46.42"/><polygon class="cls-30" points="312.14 46.42 328.26 55.73 328.26 37.12 312.14 46.42"/></g></g></g></svg>